<svg width="130" height="41" viewBox="0 0 130 41" fill="none" xmlns="http://www.w3.org/2000/svg">
    <path d="M21.6758 20.5508L21.2187 21.3945C18.3594 20.7852 15.9687 19.8398 14.0469 18.5586C12.0234 19.7695 9.64844 20.7148 6.92187 21.3945L6.46484 20.5977C9.03515 19.9492 11.3008 19.0781 13.2617 17.9844C11.793 16.8828 10.4141 15.4102 9.125 13.5664H7.63672V12.6758H13.6602V0.347656H14.6211V12.6758H19.4727V13.5664C18.2305 15.3477 16.6953 16.8438 14.8672 18.0547C16.6562 19.2031 18.9258 20.0352 21.6758 20.5508ZM18.3477 13.5664H10.2852C11.4258 15.1914 12.6875 16.5039 14.0703 17.5039C15.8594 16.3867 17.2852 15.0742 18.3477 13.5664ZM7.15625 10.9766C6.375 11.3906 5.59375 11.7734 4.8125 12.125V19.5898C4.8125 19.9805 4.68359 20.3359 4.42578 20.6562C4.16797 20.9844 3.46875 21.1484 2.32812 21.1484L1.51953 21.125L1.22656 20.1875L2.86719 20.2461C3.50781 20.2461 3.82812 19.9961 3.82812 19.4961V12.5586L0.945311 13.7305L0.535155 12.875C1.91015 12.3906 3.00781 11.9648 3.82812 11.5977V5.71484H0.58203V4.8125H3.82812V0.347656H4.8125V4.8125H7.15625V5.71484H4.8125V11.1641C5.67187 10.7656 6.35937 10.4219 6.875 10.1328L7.15625 10.9766ZM12.7812 1.56641C11.7891 2.09766 10.5156 2.64844 8.96094 3.21875V5.71484H12.3477V6.60547H8.96094V9.82812H12.5586V10.707H8V2.69141C9.82812 2.08203 11.2539 1.46094 12.2773 0.828125L12.7812 1.56641ZM20.3398 10.707H15.7812V9.82812H19.3789V6.60547H16.0391V5.71484H19.3789V2.50391H15.7578V1.61328H20.3398V10.707ZM56.668 9.37109H55.707V6.21875H38.4805V9.37109H37.5195V5.31641H46.6133V2.9375H37.8594V2.04688H46.6133V0.347656H47.5742V2.04688H56.5039V2.9375H47.5742V5.31641H56.668V9.37109ZM56.9375 16.1094L56.2109 16.7305C55.6562 16.0586 55.1211 15.4375 54.6055 14.8672C52.1445 15.0781 49.8086 15.2305 47.5977 15.3242V19.4258C47.5977 20.5586 46.9727 21.125 45.7227 21.125H44.0234L43.707 20.2344L45.0195 20.2695C45.7227 20.2695 46.168 20.2227 46.3555 20.1289C46.543 20.043 46.6367 19.832 46.6367 19.4961V15.418L38.3633 15.4883L38.1875 14.6445C42.3516 13.6055 45.6719 12.4375 48.1484 11.1406L39.8984 11.4336L39.8047 10.6367C41.7891 10.2852 44.3164 9.09375 47.3867 7.0625L48.2773 7.56641C45.9805 9.08984 44.0508 10.0977 42.4883 10.5898L48.6406 10.3789C49.2812 10.3477 49.6172 10.332 49.6484 10.332C49.6797 10.3242 50.0195 10.125 50.668 9.73438C51.3242 9.33594 51.9961 8.90234 52.6836 8.43359L53.4336 9.10156C48.8945 11.9375 44.7031 13.8281 40.8594 14.7734C47.3437 14.5703 51.6953 14.3438 53.9141 14.0938C53.1562 13.2656 52.4102 12.5469 51.6758 11.9375L52.4258 11.3633C53.3867 12.1211 54.8906 13.7031 56.9375 16.1094ZM57.3242 20.2109L56.6211 20.8672C54.8633 19.5547 52.7852 18.3203 50.3867 17.1641L51.0312 16.4492C53.4375 17.6602 55.5352 18.9141 57.3242 20.2109ZM43.7305 17.0938C41.7227 18.625 39.6602 19.832 37.543 20.7148L36.875 20C39.3672 18.9375 41.3984 17.7617 42.9687 16.4727L43.7305 17.0938ZM85.4492 0.898438C81.9648 3.24219 78.5977 4.78516 75.3477 5.52734L74.7969 4.73047C78.9062 3.62891 82.2344 2.10938 84.7812 0.171875L85.4492 0.898438ZM92.6445 14.3398L91.8828 14.9141C91.5156 14.3438 91.043 13.6953 90.4648 12.9688C88.2383 13.2656 85.9883 13.4883 83.7148 13.6367V19.4492C83.7148 20.582 83.0937 21.1484 81.8516 21.1484H79.7305L79.4258 20.1875L80.9844 20.2227C81.8594 20.2227 82.375 20.1797 82.5312 20.0938C82.6875 20.0078 82.7656 19.8164 82.7656 19.5195V13.7305C80.7187 13.8789 77.9492 14 74.457 14.0938L74.293 13.2617C77.7852 11.9961 80.8242 10.6406 83.4102 9.19531C80.043 9.42188 77.5078 9.54297 75.8047 9.55859L75.5586 8.79688C79.5586 7.05469 82.3984 5.375 84.0781 3.75781L84.8984 4.30859C83.0937 5.94922 80.8125 7.37109 78.0547 8.57422L85.0156 8.24609C85.1094 8.23828 85.6094 7.92969 86.5156 7.32031C87.4219 6.70312 88.1445 6.17578 88.6836 5.73828L89.4805 6.41797C86.8164 8.59766 82.8164 10.8203 77.4805 13.0859C81.3867 12.9453 85.4844 12.6328 89.7734 12.1484C89.3359 11.6641 88.6641 11 87.7578 10.1562L88.5195 9.65234C90.1914 11.0039 91.5664 12.5664 92.6445 14.3398ZM93.3711 18.9453L92.6914 19.6602C91.082 18.3555 89.1172 17.1094 86.7969 15.9219L87.418 15.1484C89.4961 16.1875 91.4805 17.4531 93.3711 18.9453ZM80.0234 15.9219C78.1172 17.4531 75.8945 18.6992 73.3555 19.6602L72.7227 18.9219C75.3945 17.8906 77.5898 16.6758 79.3086 15.2773L80.0234 15.9219ZM129.348 3.69922H122.234L120.535 6.60547C119.871 7.62109 119.199 8.47656 118.52 9.17188C121.301 9.10938 124.035 8.83203 126.723 8.33984C126.004 7.37891 125.238 6.48828 124.426 5.66797L125.293 5.14062C126.887 6.91406 128.148 8.5625 129.078 10.0859L128.293 10.5898L127.332 9.125C124.254 9.63281 120.957 9.96875 117.441 10.1328L117.219 9.14844C118.687 7.85938 120.008 6.04297 121.18 3.69922H116.387V2.79688H122.773C122.125 1.80469 121.586 1.05859 121.156 0.558594L121.977 0.078125C122.492 0.710938 123.133 1.61719 123.898 2.79688H129.348V3.69922ZM116.914 5C115.117 8.67188 112.926 11.9531 110.34 14.8438C112.465 14.2734 114.535 13.5938 116.551 12.8047L116.844 13.6602C114.258 14.5977 111.711 15.4062 109.203 16.0859L108.852 15.2773C110.914 12.8477 112.656 10.4688 114.078 8.14062C111.984 8.69531 110.387 9.0625 109.285 9.24219L108.969 8.41016C110.602 6.01172 112 3.26562 113.164 0.171875L114.078 0.535156C112.906 3.49609 111.586 6.04688 110.117 8.1875C111.609 7.95312 113.129 7.60156 114.676 7.13281C115.066 6.46875 115.516 5.61328 116.023 4.56641L116.914 5ZM129.535 17.3633C129.535 18.8086 129.398 19.7578 129.125 20.2109C128.859 20.6641 128.379 20.8906 127.684 20.8906H126.371C125.332 20.8906 124.812 20.3867 124.812 19.3789V11.5977H125.773V19.332C125.773 19.5039 125.848 19.6562 125.996 19.7891C126.152 19.9141 126.324 19.9766 126.512 19.9766H127.707C128.004 19.9766 128.223 19.8164 128.363 19.4961C128.512 19.1758 128.605 18.375 128.645 17.0938L129.535 17.3633ZM121.156 11.5977C121.133 14.3867 120.727 16.4375 119.937 17.75C119.156 19.0547 117.828 20.2109 115.953 21.2188L115.309 20.4336C117.066 19.6055 118.32 18.5508 119.07 17.2695C119.82 15.9883 120.195 14.2344 120.195 12.0078V11.5977H121.156ZM117.078 17.668C115.031 18.5117 112.312 19.5195 108.922 20.6914L108.559 19.8359C111.48 18.8906 114.199 17.8828 116.715 16.8125L117.078 17.668Z" fill="black"/>
    <path d="M4.69141 29.29V28.9H13.3884L10.0734 38.013L8.38341 33.385L6.70641 38.013L3.39141 28.9H3.80741L6.70641 36.869L8.38341 32.241L10.0734 36.869L12.8294 29.29H4.69141ZM21.341 30.46H21.731V38H21.341V30.46ZM30.6974 38V30.46H31.0874V38H30.6974ZM35.5074 38L31.5034 34.022L35.0914 30.46H35.6504L32.0624 34.022L36.0664 38H35.5074ZM43.8878 30.46H44.2778V38H43.8878V30.46ZM69.4023 34.087C69.4023 35.777 69.0383 36.9297 68.3103 37.545L68.0633 37.246C68.6959 36.7087 69.0123 35.6557 69.0123 34.087V32.813C69.0123 32.0937 68.9516 31.4913 68.8303 31.006C68.7089 30.512 68.5269 30.135 68.2843 29.875C68.0416 29.615 67.7686 29.433 67.4653 29.329C67.1619 29.2163 66.7979 29.16 66.3733 29.16C65.9486 29.16 65.5846 29.2163 65.2813 29.329C64.9779 29.433 64.7049 29.615 64.4623 29.875C64.2196 30.135 64.0376 30.512 63.9163 31.006C63.7949 31.4913 63.7343 32.0937 63.7343 32.813V34.087C63.7343 34.8063 63.7949 35.413 63.9163 35.907C64.0376 36.3923 64.2196 36.765 64.4623 37.025C64.7049 37.285 64.9779 37.4713 65.2813 37.584C65.5846 37.688 65.9486 37.74 66.3733 37.74C66.3733 38.702 66.5249 39.352 66.8283 39.69C67.1403 40.0367 67.6213 40.21 68.2713 40.21V40.6C67.5693 40.6 67.0276 40.4267 66.6463 40.08C66.2649 39.7333 66.0483 39.079 65.9963 38.117C65.0689 38.039 64.3929 37.675 63.9683 37.025C63.5523 36.3663 63.3443 35.387 63.3443 34.087V32.813C63.3443 31.4263 63.5826 30.408 64.0593 29.758C64.5359 29.0993 65.3073 28.77 66.3733 28.77C67.4393 28.77 68.2106 29.0993 68.6873 29.758C69.1639 30.408 69.4023 31.4263 69.4023 32.813V34.087ZM78.4379 30.46V34.23C78.4379 35.5213 78.6415 36.4313 79.0489 36.96C79.4649 37.48 80.0325 37.74 80.7519 37.74C81.4712 37.74 82.0345 37.48 82.4419 36.96C82.8579 36.4313 83.0659 35.5213 83.0659 34.23V30.46H83.4559V34.23C83.4559 36.83 82.5545 38.13 80.7519 38.13C78.9492 38.13 78.0479 36.83 78.0479 34.23V30.46H78.4379ZM97.3391 37.233C96.8624 37.831 96.0824 38.13 94.9991 38.13C93.9157 38.13 93.1401 37.8223 92.6721 37.207C92.2041 36.5917 91.9701 35.5993 91.9701 34.23C91.9701 32.8607 92.2041 31.8683 92.6721 31.253C93.1401 30.6377 93.9157 30.33 94.9991 30.33C96.2557 30.33 97.1094 30.7417 97.5601 31.565L94.3751 34.23H93.7641L97.0531 31.487C96.6717 30.9757 95.9871 30.72 94.9991 30.72C94.5657 30.72 94.2017 30.7677 93.9071 30.863C93.6124 30.9497 93.3394 31.1187 93.0881 31.37C92.8454 31.6127 92.6634 31.9723 92.5421 32.449C92.4207 32.917 92.3601 33.5107 92.3601 34.23C92.3601 34.9493 92.4207 35.5473 92.5421 36.024C92.6634 36.492 92.8454 36.8517 93.0881 37.103C93.3394 37.3457 93.6124 37.5147 93.9071 37.61C94.2017 37.6967 94.5657 37.74 94.9991 37.74C95.9871 37.74 96.6717 37.4843 97.0531 36.973L97.3391 37.233ZM109.089 34.217L110.857 38H110.428L108.608 34.1C108.625 34.0913 108.699 34.0567 108.829 33.996C108.968 33.9267 109.063 33.879 109.115 33.853C109.167 33.8183 109.254 33.762 109.375 33.684C109.496 33.606 109.587 33.5323 109.648 33.463C109.709 33.385 109.774 33.2983 109.843 33.203C109.921 33.099 109.977 32.9863 110.012 32.865C110.047 32.735 110.064 32.5963 110.064 32.449C110.064 31.903 109.804 31.5 109.284 31.24C108.764 30.98 108.118 30.85 107.347 30.85H106.307V38H105.917V30.46H107.347C108.37 30.46 109.141 30.6377 109.661 30.993C110.19 31.3483 110.454 31.8337 110.454 32.449C110.454 32.8477 110.32 33.203 110.051 33.515C109.782 33.8183 109.462 34.0523 109.089 34.217ZM119.575 30.46H124.606L121.551 37.675V40.6H121.161V37.675L118.106 30.46H118.522L121.356 37.129L124.021 30.85H119.575V30.46Z" fill="black"/>
</svg>
